<?xml version="1.0" encoding="utf-8"?>
<!-- Generator: Adobe Illustrator 22.0.0, SVG Export Plug-In . SVG Version: 6.00 Build 0)  -->
<svg version="1.1" id="圖層_1" xmlns="http://www.w3.org/2000/svg" xmlns:xlink="http://www.w3.org/1999/xlink" x="0px" y="0px"
	 viewBox="0 0 266.1 265.9" style="enable-background:new 0 0 266.1 265.9;" xml:space="preserve">
<style type="text/css">
	.st0{fill:#E0E0E0;stroke:#FFFFFF;stroke-width:9;stroke-miterlimit:10;}
	.st1{fill:#ED7474;stroke:#ED7474;stroke-miterlimit:10;}
	.st2{clip-path:url(#SVGID_2_);fill:#444444;}
	.st3{fill:#FFFFFF;stroke:#D8AF87;stroke-width:3;stroke-miterlimit:10;}
	.st4{fill:#FFF2E6;stroke:#D8AF87;stroke-width:3;stroke-miterlimit:10;}
	.st5{fill:#ED7474;}
	.st6{fill:#FFFFFF;}
	.st7{fill:none;stroke:#ED7474;stroke-miterlimit:10;}
</style>
<g>
	<g>
		<circle class="st0" cx="133.8" cy="134.9" r="127.9"/>
		<g>
			<path class="st1" d="M218.9,84.5l-49.3-45.7c-1.1-1-1.2-2.8-0.1-3.9l14.1-15.2c1-1.1,2.8-1.2,3.9-0.1l49.3,45.7
				c1.1,1,1.2,2.8,0.1,3.9l-14.1,15.2C221.7,85.5,220,85.5,218.9,84.5z"/>
			<path class="st1" d="M232.3,73.2L183,27.5c-1.1-1-1.2-2.8-0.1-3.9L197,8.4c1-1.1,2.8-1.2,3.9-0.1L250.1,54c1.1,1,1.2,2.8,0.1,3.9
				l-14.1,15.2C235.2,74.2,233.4,74.2,232.3,73.2z"/>
			<path class="st1" d="M234.5,63.7l-28.9-26.8c-1.1-1-1.2-2.8-0.1-3.9l14.1-15.2c1-1.1,2.8-1.2,3.9-0.1l28.9,26.8
				c1.1,1,1.2,2.8,0.1,3.9l-14.1,15.2C237.3,64.7,235.6,64.8,234.5,63.7z"/>
		</g>
		<g>
			<path class="st1" d="M46.2,86.8l49.3-45.7c1.1-1,1.2-2.8,0.1-3.9L81.5,22c-1-1.1-2.8-1.2-3.9-0.1L28.3,67.6
				c-1.1,1-1.2,2.8-0.1,3.9l14.1,15.2C43.3,87.8,45.1,87.8,46.2,86.8z"/>
			<path class="st1" d="M32.8,75.5L82,29.7c1.1-1,1.2-2.8,0.1-3.9L68.1,10.7c-1-1.1-2.8-1.2-3.9-0.1L14.9,56.3
				c-1.1,1-1.2,2.8-0.1,3.9l14.1,15.2C29.9,76.5,31.7,76.5,32.8,75.5z"/>
			<path class="st1" d="M30.6,66l28.9-26.8c1.1-1,1.2-2.8,0.1-3.9L45.5,20.1c-1-1.1-2.8-1.2-3.9-0.1L12.7,46.8
				c-1.1,1-1.2,2.8-0.1,3.9l14.1,15.2C27.7,67,29.5,67,30.6,66z"/>
		</g>
		<g>
			<defs>
				<circle id="SVGID_1_" cx="132.6" cy="275" r="48.1"/>
			</defs>
			<clipPath id="SVGID_2_">
				<use xlink:href="#SVGID_1_"  style="overflow:visible;"/>
			</clipPath>
			<circle class="st2" cx="132.4" cy="134.3" r="127.9"/>
		</g>
	</g>
	<circle class="st3" cx="132.9" cy="245.6" r="3"/>
	<ellipse class="st3" cx="132.9" cy="224.6" rx="8" ry="11"/>
	<g>
		<path class="st4" d="M156,226.9l-44.9,0.1c-20.4,0-31.1-19.4-37-37l-20.3-78.5c0-20.4,16.7-37,37-37h80.3c20.4,0,37,16.7,37,37
			l-17.7,79C184.2,215.3,169.4,224.4,156,226.9z"/>
		<path class="st1" d="M114.4,152.4c-3.8-10.2,0.5-12.3,0.8-24.4c-3.5,23.5,14.1,31.2,27.7,37.3c7.2-11.1,14.2-32.6,5.8-46.6
			c-4.1,18,2.2,36.3,21.6,45.1c10.9-11.5,19.5-15.2,14.3-37.7c7.6,15.1,4.5,21.5,1.6,38.2c40-16.4,37.2-33.8,37.2-57.2
			c-3-14.9-8.8-28.2-18.3-37.6c-3.6-3.6-8-8.5-12.3-11.2c-8.8-5.5-16.1-10-26-13.4c-11.9-4.1-22.1-6.4-34.6-6.9
			C98.7,34.6,75.6,54,66.6,65.8S49.3,90,46,104.4c-1.2,5.2-1.6,11.8-1.8,17.1c-0.2,7.5-0.3,14.9,2.5,21.9
			c4.6,11.6,15.9,18.9,26.7,25.2c1.6-9.5-0.4-16.3-6.6-26.5c3.8,13.5,6.9,19.9,20.7,22.5c0.5-14.8,0.4-18.5,4.2-33
			C91.7,131.5,91.5,153,114.4,152.4z"/>
		<path class="st5" d="M47.3,137.3c-0.1,5.4-0.3,15-2.4,19.9c-3.8,8.6-6.7,18.2-4.4,27.3c2.3,8.9,9.5,15.4,16.3,21.6
			c12.9,11.9,27.5,16.5,43,15.9c0,0-12.6-7.1-15.9-13c-3.3-5.9-5.1-14.4-5.1-21.1c0-13.9-11.5-20.5-12.6-28.9L47.3,137.3z"/>
		<path class="st5" d="M219.3,132.7c0.1,5.4,2.3,17.5,4.4,22.4c3.8,8.6,6.7,18.2,4.4,27.3c-2.3,8.9-9.5,15.4-16.3,21.6
			c-12.9,11.9-27.5,16.5-43,15.9c0,0,12.6-7.1,15.9-13s5.1-14.4,5.1-21.1c0-13.9,4.8-26.7,5.9-35.1L219.3,132.7z"/>
		<path class="st6" d="M59.6,110.3l-5.2-1c-0.4-0.1-0.6-0.4-0.6-0.8l2.3-11.8c0.1-0.4,0.4-0.6,0.8-0.6l5.2,1
			c0.4,0.1,0.6,0.4,0.6,0.8l-2.3,11.8C60.4,110.1,60,110.4,59.6,110.3z"/>
		<path class="st6" d="M71,111.2l-5.2-1c-0.4-0.1-0.6-0.4-0.6-0.8l1.4-7c0.1-0.4,0.4-0.6,0.8-0.6l5.2,1c0.4,0.1,0.6,0.4,0.6,0.8
			l-1.4,7C71.8,111,71.4,111.2,71,111.2z"/>
		<path class="st1" d="M163,188.5h-8.8c-0.6,0-1.2-0.5-1.2-1.2V172c0-0.6,0.5-1.2,1.2-1.2h8.8c0.6,0,1.2,0.5,1.2,1.2v15.4
			C164.2,188,163.7,188.5,163,188.5z"/>
		<path class="st1" d="M105.2,188.5h-8.8c-0.6,0-1.2-0.5-1.2-1.2V172c0-0.6,0.5-1.2,1.2-1.2h8.8c0.6,0,1.2,0.5,1.2,1.2v15.4
			C106.3,188,105.8,188.5,105.2,188.5z"/>
		<path class="st7" d="M119.1,206.9c7.6,5.3,16,7.7,27,0"/>
	</g>
</g>
</svg>
