<?xml version="1.0" encoding="utf-8"?>
<!-- Generator: Adobe Illustrator 22.0.0, SVG Export Plug-In . SVG Version: 6.00 Build 0)  -->
<svg version="1.1" id="圖層_1" xmlns="http://www.w3.org/2000/svg" xmlns:xlink="http://www.w3.org/1999/xlink" x="0px" y="0px"
	 viewBox="0 0 185.3 261.7" style="enable-background:new 0 0 185.3 261.7;" xml:space="preserve">
<style type="text/css">
	.st0{fill:#E0E0E0;stroke:#FFFFFF;stroke-width:9;stroke-miterlimit:10;}
	.st1{fill:#ED7474;stroke:#ED7474;stroke-miterlimit:10;}
	.st2{clip-path:url(#SVGID_1_);fill:#444444;}
	.st3{fill:#FFFFFF;stroke:#D8AF87;stroke-width:3;stroke-miterlimit:10;}
	.st4{fill:#FFF2E6;stroke:#D8AF87;stroke-width:3;stroke-miterlimit:10;}
	.st5{fill:#ED7474;}
	.st6{fill:#FFFFFF;}
	.st7{fill:none;stroke:#ED7474;stroke-miterlimit:10;}
	.st8{fill:url(#SVGID_2_);}
</style>
<g>
	<g>
		<circle class="st0" cx="463.4" cy="105.8" r="127.9"/>
		<g>
			<path class="st1" d="M548.5,55.4L499.2,9.6c-1.1-1-1.2-2.8-0.1-3.9l14.1-15.2c1-1.1,2.8-1.2,3.9-0.1l49.3,45.7
				c1.1,1,1.2,2.8,0.1,3.9l-14.1,15.2C551.3,56.3,549.6,56.4,548.5,55.4z"/>
			<path class="st1" d="M561.9,44.1L512.6-1.7c-1.1-1-1.2-2.8-0.1-3.9l14.1-15.2c1-1.1,2.8-1.2,3.9-0.1l49.3,45.7
				c1.1,1,1.2,2.8,0.1,3.9l-14.1,15.2C564.7,45,563,45.1,561.9,44.1z"/>
			<path class="st1" d="M564,34.6L535.2,7.8c-1.1-1-1.2-2.8-0.1-3.9l14.1-15.2c1-1.1,2.8-1.2,3.9-0.1l28.9,26.8
				c1.1,1,1.2,2.8,0.1,3.9l-14.1,15.2C566.9,35.6,565.1,35.6,564,34.6z"/>
		</g>
		<g>
			<path class="st1" d="M375.7,57.7L425,11.9c1.1-1,1.2-2.8,0.1-3.9L411-7.2c-1-1.1-2.8-1.2-3.9-0.1l-49.3,45.7
				c-1.1,1-1.2,2.8-0.1,3.9l14.1,15.2C372.9,58.6,374.6,58.7,375.7,57.7z"/>
			<path class="st1" d="M362.3,46.4l49.3-45.7c1.1-1,1.2-2.8,0.1-3.9l-14.1-15.2c-1-1.1-2.8-1.2-3.9-0.1l-49.3,45.7
				c-1.1,1-1.2,2.8-0.1,3.9l14.1,15.2C359.5,47.3,361.2,47.4,362.3,46.4z"/>
			<path class="st1" d="M360.2,36.9L389,10.1c1.1-1,1.2-2.8,0.1-3.9L375.1-9c-1-1.1-2.8-1.2-3.9-0.1l-28.9,26.8
				c-1.1,1-1.2,2.8-0.1,3.9l14.1,15.2C357.3,37.9,359,37.9,360.2,36.9z"/>
		</g>
		<g>
			<defs>
				<circle id="SVGID_3_" cx="462.1" cy="245.9" r="48.1"/>
			</defs>
			<clipPath id="SVGID_1_">
				<use xlink:href="#SVGID_3_"  style="overflow:visible;"/>
			</clipPath>
			<circle class="st2" cx="461.9" cy="105.1" r="127.9"/>
		</g>
	</g>
	<circle class="st3" cx="462.5" cy="216.5" r="3"/>
	<ellipse class="st3" cx="462.5" cy="195.5" rx="8" ry="11"/>
	<g>
		<path class="st4" d="M485.6,197.8l-44.9,0.1c-20.4,0-31.1-19.4-37-37l-20.3-78.5c0-20.4,16.7-37,37-37h80.3c20.4,0,37,16.7,37,37
			l-17.7,79C513.8,186.2,498.9,195.3,485.6,197.8z"/>
		<path class="st1" d="M444,123.3c-3.8-10.2,0.5-12.3,0.8-24.4c-3.5,23.5,14.1,31.2,27.7,37.3c7.2-11.1,14.2-32.6,5.8-46.6
			c-4.1,18,2.2,36.3,21.6,45.1c10.9-11.5,19.5-15.2,14.3-37.7c7.6,15.1,4.5,21.5,1.6,38.2c40-16.4,37.2-33.8,37.2-57.2
			c-3-14.9-8.8-28.2-18.3-37.6c-3.6-3.6-8-8.5-12.3-11.2c-8.8-5.5-16.1-10-26-13.4c-11.9-4.1-22.1-6.4-34.6-6.9
			c-33.5-3.3-56.7,16.1-65.6,27.9s-17.3,24.1-20.6,38.6c-1.2,5.2-1.6,11.8-1.8,17.1c-0.2,7.5-0.3,14.9,2.5,21.9
			c4.6,11.6,15.9,18.9,26.7,25.2c1.6-9.5-0.4-16.3-6.6-26.5c3.8,13.5,6.9,19.9,20.7,22.5c0.5-14.8,0.4-18.5,4.2-33
			C421.2,102.4,421,123.9,444,123.3z"/>
		<path class="st5" d="M376.9,108.1c-0.1,5.4-0.3,15-2.4,19.9c-3.8,8.6-6.7,18.2-4.4,27.3c2.3,8.9,9.5,15.4,16.3,21.6
			c12.9,11.9,27.5,16.5,43,15.9c0,0-12.6-7.1-15.9-13c-3.3-5.9-5.1-14.4-5.1-21.1c0-13.9-11.5-20.5-12.6-28.9L376.9,108.1z"/>
		<path class="st5" d="M548.8,103.6c0.1,5.4,2.3,17.5,4.4,22.4c3.8,8.6,6.7,18.2,4.4,27.3c-2.3,8.9-9.5,15.4-16.3,21.6
			c-12.9,11.9-27.5,16.5-43,15.9c0,0,12.6-7.1,15.9-13c3.3-5.9,5.1-14.4,5.1-21.1c0-13.9,4.8-26.7,5.9-35.1L548.8,103.6z"/>
		<path class="st6" d="M389.2,81.2l-5.2-1c-0.4-0.1-0.6-0.4-0.6-0.8l2.3-11.8c0.1-0.4,0.4-0.6,0.8-0.6l5.2,1
			c0.4,0.1,0.6,0.4,0.6,0.8L390,80.6C389.9,81,389.6,81.2,389.2,81.2z"/>
		<path class="st6" d="M400.6,82l-5.2-1c-0.4-0.1-0.6-0.4-0.6-0.8l1.4-7c0.1-0.4,0.4-0.6,0.8-0.6l5.2,1c0.4,0.1,0.6,0.4,0.6,0.8
			l-1.4,7C401.4,81.8,401,82.1,400.6,82z"/>
		<path class="st1" d="M492.6,159.4h-8.8c-0.6,0-1.2-0.5-1.2-1.2v-15.4c0-0.6,0.5-1.2,1.2-1.2h8.8c0.6,0,1.2,0.5,1.2,1.2v15.4
			C493.8,158.9,493.2,159.4,492.6,159.4z"/>
		<path class="st1" d="M434.7,159.4h-8.8c-0.6,0-1.2-0.5-1.2-1.2v-15.4c0-0.6,0.5-1.2,1.2-1.2h8.8c0.6,0,1.2,0.5,1.2,1.2v15.4
			C435.9,158.9,435.4,159.4,434.7,159.4z"/>
		<path class="st7" d="M448.6,177.8c7.6,5.3,16,7.7,27,0"/>
	</g>
</g>
<linearGradient id="SVGID_2_" gradientUnits="userSpaceOnUse" x1="1.5179" y1="132.5103" x2="183" y2="132.5103">
	<stop  offset="0" style="stop-color:#FBB03B"/>
	<stop  offset="0.11" style="stop-color:#F59F44"/>
	<stop  offset="0.3114" style="stop-color:#ED8650"/>
	<stop  offset="0.5215" style="stop-color:#E77459"/>
	<stop  offset="0.7441" style="stop-color:#E3695E"/>
	<stop  offset="1" style="stop-color:#E26660"/>
</linearGradient>
<polygon class="st8" points="144.3,197.8 53.5,132.5 144.3,67.3 183,39.4 183,2 92.3,67.3 1.5,132.5 92.3,197.8 183,263 183,225.6 
	"/>
</svg>
